<?xml version="1.0" encoding="UTF-8"?>
<svg width="818px" height="411px" viewBox="0 0 818 411" version="1.1" xmlns="http://www.w3.org/2000/svg" xmlns:xlink="http://www.w3.org/1999/xlink">
    <!-- Generator: Sketch 40.2 (33826) - http://www.bohemiancoding.com/sketch -->
    <title>Shape</title>
    <desc>Created with Sketch.</desc>
    <defs></defs>
    <g id="Page-1" stroke="none" stroke-width="1" fill="none" fill-rule="evenodd">
        <path d="M428.758887,399.474613 C428.022664,398.370278 427.360064,397.413188 426.623841,396.676965 C425.445884,395.646253 425.372261,395.646253 425.225017,395.572631 C423.826193,396.014364 421.691146,396.529721 419.187988,396.529721 C414.402538,396.529721 409.9852,394.762785 406.009596,391.302537 C403.948171,390.050958 402.843837,389.609224 401.66588,389.093868 C399.457211,388.136778 396.733186,386.958821 393.861916,385.191886 C392.242225,384.234796 390.254423,383.71944 388.119376,383.130462 C386.573308,382.76235 384.953617,382.320616 383.260304,381.658016 C381.272502,380.84817 370.818135,376.062721 366.768909,373.706807 C366.327175,373.559562 365.443707,373.338695 364.339373,373.338695 C361.762592,373.854051 360.658258,374.222163 359.553923,374.590274 C355.578319,375.915476 351.087358,377.387922 345.933797,377.387922 C339.013301,376.872566 334.669585,375.179253 331.062092,372.234361 C325.24593,368.332379 318.693545,364.430397 316.632121,363.620551 C299.99348,357.5099 294.177319,355.816587 291.96865,355.374854 C290.864315,355.669343 289.318247,355.963832 287.551311,355.963832 C283.428462,355.963832 280.115459,354.417764 277.465056,352.945318 C272.311495,350.074048 269.366603,345.583087 267.231556,342.343706 C266.937067,341.901972 266.568955,341.386616 266.274466,340.87126 C263.550441,339.987792 261.047283,339.030702 258.912236,338.147235 C255.820099,338.368102 253.537808,338.95708 250.666538,338.95708 C246.764556,338.95708 243.746041,337.705501 241.684617,336.453922 C237.709013,338.368102 234.10152,340.135037 229.610559,340.135037 C227.475513,340.135037 225.340466,339.766925 223.426286,338.95708 C216.137678,336.012188 213.781764,329.165314 212.014829,324.23262 C208.112847,322.612929 203.106531,320.330638 199.351793,313.851875 C198.983682,313.189274 198.61557,312.453051 198.321081,311.790451 C192.652164,308.035713 187.351358,302.440418 184.700955,299.495526 C182.271419,298.98017 181.608818,298.906548 180.946218,298.759303 C178.590304,298.391192 175.571789,297.875835 172.258786,296.771501 C166.369002,294.783699 161.362685,291.323451 157.313458,286.538001 C154.000455,282.636019 139.938595,273.72772 135.962991,271.81354 C135.079523,271.592673 132.797232,271.298184 131.324786,271.077317 C126.465714,270.414717 120.355063,269.678494 114.686145,267.028091 C105.925091,262.978864 100.256174,259.96035 91.3478755,250.536695 C88.9183396,247.959914 86.5624259,246.929202 84.0592676,245.751245 C80.5253971,244.131555 71.1017424,239.861461 71.1017424,228.744493 C70.0710301,226.314958 68.819451,224.621645 68.0096057,223.811799 C66.389915,222.781087 63.7395121,220.719663 60.5001308,216.523191 C56.3036596,213.651921 51.8126992,208.866472 48.8678071,202.09322 C48.0579617,200.252662 47.3217387,198.338483 46.5855157,196.497925 C45.9965373,194.951857 45.1130696,192.743188 44.3768466,190.976252 C39.4441524,189.503806 32.6709005,186.558914 28.9161631,179.638418 C26.1921379,174.705724 25.7504041,168.815939 27.664584,163.147022 C28.8425408,159.686774 28.9897854,155.195813 28.9897854,153.060767 C27.9590732,147.170982 26.2657602,140.544975 25.0141811,137.673705 C22.2165336,135.538659 20.1551091,133.0355 18.7562854,131.121321 C13.2346127,129.796119 9.99523141,126.777605 8.08105154,124.200824 C7.27120622,123.022867 6.53498319,121.771288 6.09324938,120.519709 C3.6637134,118.531907 1.16055512,115.587015 0.277087493,111.022432 C-0.680002438,105.942493 0.866065912,100.862554 4.54718103,96.8869499 C8.15467385,93.0585902 11.5412998,91.3652773 14.044458,90.1873204 C14.7806811,89.8192089 15.4432818,89.5247197 16.1058825,89.0829859 C18.5354185,87.6841621 19.9342422,86.6534499 21.5539329,85.4754931 C22.5110228,84.4447808 24.4252027,82.0152448 25.6767818,80.4691765 C27.9590732,77.5242844 29.6523861,75.5364822 31.0512099,73.9904139 C32.1555444,71.4136333 33.9224797,67.2907844 38.1189509,63.9777808 C41.4319545,61.3273779 44.5240912,60.2966656 46.4382711,59.6340649 C47.4689833,58.7505973 47.9107171,57.940752 48.3524509,57.0572843 C49.7512747,54.3332592 51.4445876,50.9466332 54.0213682,47.6336296 C60.79462,39.0198203 66.389915,37.1792627 72.8686776,35.7068167 C74.7092352,35.1178382 78.9057064,32.1729461 80.3045302,30.3323886 C81.9242208,28.2709641 83.1021777,26.9457627 84.0592676,25.8414281 C85.384469,24.3689821 86.6360482,22.9701583 90.0226741,18.1847087 C91.1270086,16.6386403 92.0104763,15.2398166 92.8939439,13.9146151 C96.7959259,8.02483096 102.096732,0 112.91921,0 C114.907012,0 116.894814,0.29448921 118.956239,0.883467629 C123.962555,2.42953598 127.275559,5.52167268 129.189739,7.43585254 C130.441318,8.31932017 130.956674,8.24569787 131.692897,8.09845326 C133.38621,7.80396405 134.416922,7.50947484 134.932279,7.28860794 C138.318904,4.12284893 142.220886,2.57678058 146.711847,2.57678058 C148.110671,2.57678058 149.509494,2.72402519 151.055563,3.0185144 C157.092592,4.19647124 164.749311,8.09845326 166.884358,19.4362878 C167.473336,20.6142447 167.841448,21.42409 168.209559,22.160313 C178.295815,25.4733166 184.700955,33.1300361 184.700955,42.2592016 L184.700955,43.584403 C187.866714,44.6151152 190.443495,45.9403167 192.652164,47.5600073 C197.584858,51.3147448 200.382505,56.6891728 200.52975,62.6525793 C205.462444,64.0514031 209.290804,66.2600721 212.456563,69.4994534 C213.487275,69.4994534 214.665232,69.5730757 215.990433,69.646698 C217.46288,69.7203204 218.935326,69.7939427 220.334149,69.7939427 C225.929444,69.7939427 228.653469,69.1313419 228.947959,69.0577196 C230.346782,68.6896081 231.819228,68.5423635 233.291675,68.5423635 C242.052729,68.5423635 251.329139,75.3156153 252.286229,87.8314067 C253.537808,87.6105398 254.863009,87.4632952 256.335455,87.4632952 C258.912236,87.4632952 261.709883,87.905029 265.611865,88.862119 C272.311495,90.5554319 279.158369,93.4267017 285.195398,96.0034823 C286.594221,96.5924607 287.919423,97.1814391 289.171002,97.6967953 C291.085182,98.5066406 293.882829,99.6109751 295.723387,100.126331 C298.521034,100.862554 300.803326,101.746022 302.643883,102.408623 C303.748218,102.187756 304.263574,101.746022 304.77893,101.230666 C307.282088,98.8747521 311.920293,94.457414 319.429768,94.457414 C320.460481,94.457414 321.564815,94.5310363 322.595527,94.7519032 C323.33175,94.5310363 324.804196,93.9420578 327.528222,92.6168564 C331.356581,90.7026765 335.847542,89.8192089 341.295592,89.8192089 C343.430639,89.8192089 345.492063,89.9664535 347.258999,90.1136981 C351.749959,86.5062053 355.578319,83.4140686 359.627545,81.6471333 C362.057081,80.5427988 364.56024,79.8801981 367.210643,79.6593312 C368.535844,77.3770398 370.523646,74.5793923 373.615783,71.8553671 C377.591387,68.3951189 382.597704,66.5545613 388.192999,66.5545613 C391.726869,66.5545613 394.892628,67.2907844 397.469409,68.174252 C399.972567,67.5116513 403.138326,66.8490506 406.745819,66.8490506 C409.02811,66.8490506 411.163157,67.1435398 413.298204,67.6588959 C417.936409,68.8368527 420.954923,70.8246549 423.016348,72.4443455 C424.562416,71.7081225 426.844707,70.2356765 428.169909,69.3522088 C431.851024,66.9226729 436.121118,64.1250254 441.716413,64.1250254 C444.145949,64.1250254 447.238085,64.5667592 450.2566,66.2600721 C453.495981,66.480939 456.808985,67.2171621 459.901121,68.3214966 C461.520812,67.2907844 463.508614,66.3336944 465.643661,65.5238491 C470.502733,63.7569139 472.858646,63.31518 476.539762,63.31518 C480.441744,63.0943131 480.809855,62.9470685 482.282301,62.3580901 C483.386636,61.9163563 484.932704,61.2537556 486.920506,60.6647772 C488.024841,60.3702879 489.129175,60.0757987 490.23351,59.9285541 C493.325647,53.3761692 499.50992,50.9466332 504.221747,50.9466332 C506.87215,50.9466332 511.952089,51.6828563 516.222183,56.5419282 C519.608808,60.3702879 520.93401,64.8612484 521.817478,68.3214966 C529.326952,69.3522088 540.885654,71.0455218 544.125035,82.3833564 C544.93488,85.1073815 544.93488,87.6841621 544.640391,89.8928312 C545.671104,91.2916549 546.628193,92.6904787 547.585283,94.0156801 C548.689618,95.6353708 550.67742,98.5802629 551.781755,99.5373528 C554.579402,100.126331 557.303427,100.42082 559.732963,100.71531 C566.727082,101.525155 576.297981,102.703112 580.199963,112.421256 C581.746032,116.249615 581.746032,120.372464 580.273586,124.200824 C584.322812,125.526026 587.78306,128.397295 590.580708,132.741011 C595.513402,133.256367 600.004363,136.054015 605.67328,142.017421 C608.029194,144.52058 612.446532,149.453274 615.170557,154.974947 C616.274891,157.257238 617.158359,159.24504 617.82096,160.938353 C618.115449,161.600954 618.483561,162.484421 618.704427,163.147022 C621.428453,162.631666 623.048143,162.484421 624.594212,162.484421 C632.54542,162.484421 637.772604,166.460026 640.86474,168.815939 C641.600964,169.404918 642.705298,170.214763 643.07341,170.362008 C644.766723,170.509252 646.018302,170.656497 647.049014,170.656497 C651.687219,167.785227 655.294712,166.460026 659.417561,166.460026 C663.172298,166.460026 666.779791,167.711605 670.092795,170.214763 C673.626665,172.865166 675.614467,176.251792 676.866046,179.564795 C679.810938,178.607706 682.461341,177.724238 685.700723,177.724238 C690.707039,177.724238 695.418867,180.006529 698.584626,183.982134 C699.394471,185.012846 700.057072,186.043558 700.572428,187.07427 C702.265741,187.442382 703.811809,187.736871 705.063388,187.736871 C709.627971,187.147893 712.278374,186.779781 714.781532,186.779781 C719.19887,186.779781 723.02723,187.884116 726.487478,190.092785 C728.328036,191.270742 729.653237,192.669565 731.052061,194.142011 C733.334352,192.375076 736.647356,190.608141 740.991072,190.608141 C746.071011,190.608141 750.635593,193.111299 753.506863,197.160526 C757.261601,193.700278 761.531694,191.933342 766.169899,191.933342 C770.292748,191.933342 774.19473,193.405788 777.286867,196.129814 C778.243957,195.835324 779.053802,195.540835 779.716403,195.319968 C782.734917,192.743188 786.489655,191.344364 790.538881,191.344364 C796.57591,191.344364 802.539317,194.583745 806.441299,199.958173 C807.177522,200.988885 807.840122,202.09322 808.355478,203.197555 C814.834241,209.087339 818,215.934213 818,224.032666 C818,228.523627 816.453932,232.646476 813.50904,235.738612 C810.416903,239.125238 805.999565,241.039418 801.36136,241.039418 C796.207798,241.039418 791.275104,238.757127 787.888478,234.928767 C786.047921,236.548458 783.765629,238.020904 780.89436,239.49335 C778.317579,240.744929 775.225442,242.07013 771.470705,242.07013 C769.041169,242.07013 764.771075,241.481152 760.942716,238.094526 C759.617514,238.094526 758.586802,238.24177 757.335223,238.389015 C755.862777,238.53626 754.243086,238.757127 752.402529,238.757127 C751.224572,238.757127 747.690701,238.757127 746.071011,238.977994 C740.917449,247.150069 733.039863,248.254404 729.579615,248.76976 C728.47528,248.917004 727.297323,248.990627 725.972122,248.990627 C724.352431,249.43236 724.131564,249.800472 723.837075,250.242206 C722.806363,251.788274 721.260295,254.21781 720.965805,255.101278 C718.020913,263.052486 714.413421,268.574159 710.143327,271.666296 C710.805928,277.261591 708.96537,282.709641 704.916144,286.758868 C702.928341,288.74667 700.940539,290.366361 699.541715,291.544317 C697.406669,294.047476 696.15509,295.299055 694.977133,296.256145 C693.799176,301.409706 691.664129,310.759738 681.357007,315.9133 C677.749514,317.753857 674.068399,318.416458 670.829018,319.079059 C668.767593,319.44717 665.601834,320.109771 664.865611,320.772371 C661.773474,323.864508 658.681338,325.85231 656.472669,327.324756 C655.957312,327.692868 655.294712,328.134602 654.779356,328.429091 C654.411244,330.858627 654.190377,332.993674 653.895888,335.055098 C653.233287,341.239372 652.497064,347.644512 648.595082,354.859497 C645.282079,361.043771 638.214338,368.406001 635.343068,371.277271 C627.391859,379.22848 622.753654,382.026127 619.882384,383.204084 C618.262694,385.339131 616.716625,387.400555 614.581579,389.756469 C607.808327,397.192321 598.163805,401.462415 588.003927,401.462415 C586.16337,401.462415 584.24919,401.31517 582.482255,401.020681 C581.304298,400.799814 580.273586,400.65257 579.316496,400.431703 C575.340891,401.756904 571.880643,402.566749 568.27315,402.566749 C561.720765,402.566749 555.094758,400.063591 549.941197,395.646253 C549.646708,395.351764 548.395129,394.321052 548.395129,394.321052 C547.585283,393.658451 546.333704,393.143095 542.284478,393.143095 C533.302557,393.143095 527.33915,390.566314 523.437168,388.873001 C520.860388,387.768667 520.271409,387.5478 519.461564,387.5478 C515.633204,387.5478 511.363111,386.958821 507.313884,386.296221 C504.442614,385.854487 501.571344,385.412753 499.289053,385.339131 C492.442179,393.216717 488.098463,395.572631 484.711837,396.529721 C484.049236,396.82421 482.57679,397.560433 481.546078,398.002167 C478.601186,399.40099 475.656294,400.873436 472.858646,401.830526 C469.103909,403.155728 466.306262,404.18644 462.40428,404.554552 C460.121988,406.615976 456.514495,409.119134 451.066445,410.149847 C450.035733,410.738825 448.710531,410.812447 447.38533,410.812447 C436.710096,410.812447 431.335668,403.155728 428.758887,399.474613 Z" id="Shape" fill="#D77008"></path>
    </g>
</svg>